<svg xmlns="http://www.w3.org/2000/svg" viewBox="0 0 333.82 76.83"><defs><style>.cls-1{fill:#fff;}.cls-2{fill:#f17300;}</style></defs><title>Asset 1</title><g id="Layer_2" data-name="Layer 2"><g id="Layer_1-2" data-name="Layer 1"><path class="cls-1" d="M18.53,29,30.25,39.67c6.6,5.86,8.06,10.78,8.06,20.94,0,10.88-6,16.22-19.15,16.22S0,71.49,0,60.61V52.34C0,50,1.26,48.67,3.56,48.67H9.63c2.3,0,3.56,1.36,3.56,3.67v8.27c0,3.56,1.67,6,6,6s6-2.4,6-6c0-5.87-.84-8.69-5.34-12.77L8,37.16C1.36,31.3,0,26.38,0,16.22,0,5.34,6,0,19.16,0S38.31,5.34,38.31,16.22v8.27a3.2,3.2,0,0,1-3.56,3.56H28.68a3.2,3.2,0,0,1-3.56-3.56V16.22c0-3.55-1.67-6-6-6s-6,2.41-6,6C13.19,22.09,14,24.91,18.53,29Z"/><path class="cls-1" d="M69.3,10.78V72.65a3.36,3.36,0,0,1-3.67,3.66h-6A3.36,3.36,0,0,1,56,72.65V10.78H45.43a3.36,3.36,0,0,1-3.66-3.66v-3c0-2.3,1.36-3.56,3.66-3.56H79.87c2.3,0,3.66,1.26,3.66,3.56v3a3.36,3.36,0,0,1-3.66,3.66Z"/><path class="cls-1" d="M87.72,4.08c0-2.3,1.36-3.56,3.66-3.56h6c2.3,0,3.67,1.26,3.67,3.56V60.61c0,3.56,1.56,6,5.86,6s6-2.4,6-6V4.08c0-2.3,1.36-3.56,3.67-3.56h6c2.31,0,3.67,1.26,3.67,3.56V60.61c0,10.88-6.07,16.22-19.26,16.22S87.72,71.49,87.72,60.61Z"/><path class="cls-1" d="M138.18,76.31a3.36,3.36,0,0,1-3.67-3.66V4.08c0-2.3,1.36-3.56,3.67-3.56H153c13.5,0,19.58,5.45,19.58,16.65V59.56c0,11.3-6.08,16.75-19.58,16.75ZM153,66.05c4.61,0,6.39-2.62,6.39-6.49V17.17c0-3.77-1.78-6.39-6.39-6.39h-5.23V66.05Z"/><path class="cls-1" d="M194.28,72.65a3.36,3.36,0,0,1-3.66,3.66h-6A3.36,3.36,0,0,1,181,72.65V4.08c0-2.3,1.36-3.56,3.66-3.56h6c2.3,0,3.66,1.26,3.66,3.56Z"/><path class="cls-1" d="M241.07,16.22V60.61c0,10.88-6.07,16.22-19.26,16.22s-19.15-5.34-19.15-16.22V16.22c0-10.88,6-16.22,19.15-16.22S241.07,5.34,241.07,16.22Zm-25.12,0V60.61c0,3.56,1.57,6,5.86,6s6-2.4,6-6V16.22c0-3.55-1.67-6-6-6S216,12.67,216,16.22Z"/><path class="cls-2" d="M249.45,4.08c0-2.3,1.36-3.56,3.66-3.56h6c2.3,0,3.66,1.26,3.66,3.56V60.61c0,3.56,1.57,6,5.87,6s6-2.4,6-6V4.08c0-2.3,1.36-3.56,3.67-3.56h6c2.31,0,3.67,1.26,3.67,3.56V60.61c0,10.88-6.08,16.22-19.26,16.22s-19.16-5.34-19.16-16.22Z"/><path class="cls-1" d="M314,29l11.72,10.68c6.59,5.86,8.06,10.78,8.06,20.94,0,10.88-6,16.22-19.15,16.22s-19.16-5.34-19.16-16.22V52.34c0-2.31,1.26-3.67,3.56-3.67h6.07c2.3,0,3.56,1.36,3.56,3.67v8.27c0,3.56,1.67,6,6,6s6-2.4,6-6c0-5.87-.84-8.69-5.34-12.77L303.46,37.16c-6.59-5.86-7.95-10.78-7.95-20.94,0-10.88,6-16.22,19.16-16.22s19.15,5.34,19.15,16.22v8.27a3.2,3.2,0,0,1-3.56,3.56h-6.07a3.2,3.2,0,0,1-3.56-3.56V16.22c0-3.55-1.67-6-6-6s-6,2.41-6,6C308.7,22.09,309.54,24.91,314,29Z"/></g></g></svg>