<svg id="Layer_1" data-name="Layer 1" xmlns="http://www.w3.org/2000/svg" xmlns:xlink="http://www.w3.org/1999/xlink" viewBox="0 0 314.8 48.84"><defs><style>.cls-1{fill:#e8eef2;}.cls-2{fill:url(#radial-gradient);}</style><radialGradient id="radial-gradient" cx="211.83" cy="28.53" r="18.57" gradientUnits="userSpaceOnUse"><stop offset="0.47" stop-color="#e63846"/><stop offset="1" stop-color="#ac2430"/></radialGradient></defs><title>logo</title><path class="cls-1" d="M3,81.07c0-1.59,2-2.38,2.16-2.16,1.87,4,6.39,8.27,14.45,8.27,7.62,0,12.29-3.67,12.29-9.49,0-6.69-6.33-8.41-13.37-10.07C11.34,65.9,4.22,63.74,4.22,54.9c0-7.33,6.54-12.51,15.17-12.51,6.25,0,10.64,2.16,13,4.46a6,6,0,0,1,2,3.74,2.65,2.65,0,0,1-2.22,2.3c-1.73-3.81-6-7.34-12.8-7.34S7.82,49.22,7.82,54.83c0,6.39,5.39,7.76,12.58,9.49C27.87,66,35.49,68.56,35.49,77.54c0,7.7-6.25,12.8-15.81,12.8C12.85,90.34,8,88,5.3,85.31A6.6,6.6,0,0,1,3,81.07Z" transform="translate(-3 -41.5)"/><path class="cls-1" d="M56.56,46.42H41.25c-1.08,0-1.66-.51-1.66-1.51v-.29c0-1,.58-1.51,1.66-1.51H75.46c1.08,0,1.73.5,1.73,1.51v.29c0,1-.65,1.51-1.73,1.51H60.22V88.18a1.46,1.46,0,0,1-1.58,1.66h-.57c-1,0-1.51-.58-1.51-1.66Z" transform="translate(-3 -41.5)"/><path class="cls-1" d="M83.73,44.55c0-1.08.51-1.66,1.51-1.66h.51a1.49,1.49,0,0,1,1.65,1.66V71.22C87.4,81.64,92,87,101.49,87s14-5.25,14-15.81V44.55c0-1.15.5-1.66,1.58-1.66h.65c1,0,1.43.51,1.43,1.66V71.36c0,12.36-6.18,19-17.82,19S83.73,83.87,83.73,71.5Z" transform="translate(-3 -41.5)"/><path class="cls-1" d="M129.74,45.34a2.08,2.08,0,0,1,2.09-2.23h11c16,0,25.3,8.7,25.3,23.15s-9.56,23.36-25.66,23.36H131.83a2.09,2.09,0,0,1-2.09-2.23Zm34.58,21c0-12.44-7.91-20-21.49-20h-9.42V86.39h9.27C156.49,86.39,164.32,78.91,164.32,66.33Z" transform="translate(-3 -41.5)"/><path class="cls-1" d="M178,44.55c0-1.08.51-1.66,1.51-1.66h.5a1.49,1.49,0,0,1,1.66,1.66V88.18A1.49,1.49,0,0,1,180,89.84h-.5c-1,0-1.51-.58-1.51-1.66Z" transform="translate(-3 -41.5)"/><path class="cls-1" d="M242.1,44.55c0-1.08.5-1.66,1.51-1.66h.51a1.49,1.49,0,0,1,1.65,1.66V71.22c0,10.42,4.6,15.81,14.09,15.81s14-5.25,14-15.81V44.55c0-1.15.5-1.66,1.58-1.66h.64c1,0,1.44.51,1.44,1.66V71.36c0,12.36-6.18,19-17.83,19S242.1,83.87,242.1,71.5Z" transform="translate(-3 -41.5)"/><path class="cls-1" d="M285.31,81.07c0-1.59,2-2.38,2.15-2.16,1.87,4,6.4,8.27,14.45,8.27,7.62,0,12.3-3.67,12.3-9.49,0-6.69-6.33-8.41-13.37-10.07s-14.31-3.88-14.31-12.72c0-7.33,6.54-12.51,15.17-12.51,6.25,0,10.64,2.16,13,4.46a6,6,0,0,1,2,3.74,2.65,2.65,0,0,1-2.23,2.3c-1.72-3.81-6-7.34-12.79-7.34s-11.58,3.67-11.58,9.28c0,6.39,5.4,7.76,12.58,9.49,7.48,1.72,15.1,4.24,15.1,13.22,0,7.7-6.25,12.8-15.81,12.8-6.83,0-11.72-2.37-14.38-5A6.6,6.6,0,0,1,285.31,81.07Z" transform="translate(-3 -41.5)"/><path class="cls-1" d="M211.83,41.5a24,24,0,1,0,24,24A24,24,0,0,0,211.83,41.5Zm0,44.48a20.44,20.44,0,1,1,20.44-20.44A20.46,20.46,0,0,1,211.83,86Z" transform="translate(-3 -41.5)"/><circle class="cls-2" cx="208.83" cy="24.03" r="13.01"/></svg>